<svg width="863" height="317" viewBox="0 0 863 317" fill="none" xmlns="http://www.w3.org/2000/svg">
<rect width="863" height="303" fill="#2C1636"/>
<path d="M854.874 141.332L855.205 140.958L854.832 140.626L720.463 21.2383L719.563 20.4385L719.632 21.6407L724.013 98.0363L21.5129 168.81L21.0364 168.858L21.0638 169.336L23.2575 207.585L23.2848 208.061L23.7618 208.056L729.909 200.823L734.233 276.222L734.302 277.433L735.107 276.525L854.874 141.332Z" fill="white" stroke="white"/>
<path d="M69 275C56.9382 275 46.6643 271.181 38.1784 263.542C29.6924 255.841 23.2079 244.693 18.7247 230.099C14.2416 215.442 12 197.743 12 177C12 156.382 14.2416 138.775 18.7247 124.181C23.2612 109.524 29.7725 98.3454 38.2584 90.6445C46.7978 82.8815 57.0449 79 69 79C80.9551 79 91.1756 82.8815 99.6615 90.6445C108.201 98.3454 114.712 109.524 119.195 124.181C123.732 138.775 126 156.382 126 177C126 197.743 123.758 215.442 119.275 230.099C114.792 244.693 108.308 255.841 99.8216 263.542C91.3357 271.181 81.0618 275 69 275ZM69 254.506C80.9551 254.506 90.2416 247.798 96.8596 234.384C103.478 220.97 106.787 201.842 106.787 177C106.787 160.48 105.265 146.414 102.223 134.8C99.2346 123.187 94.9115 114.337 89.2542 108.251C83.6503 102.165 76.8989 99.1217 69 99.1217C57.1517 99.1217 47.8919 105.922 41.2205 119.523C34.5492 133.061 31.2135 152.221 31.2135 177C31.2135 193.52 32.7079 207.555 35.6966 219.106C38.6854 230.658 42.9817 239.446 48.5857 245.47C54.243 251.494 61.0478 254.506 69 254.506Z" fill="white" stroke="white" stroke-width="8"/>
<path d="M269.954 16.8814L268.332 16.6352L254.45 14.5283L251.575 14.0919V17C251.575 25.3499 250.606 33.2752 248.679 40.7836L247.99 43.4667L250.729 43.8776L261.992 45.5669L197.578 52.6609V39.825V37.325H195.078H154.59H152.09V39.825V57.6019L125.725 60.5163L123.406 60.7727L123.502 63.1042L125.32 107.174L125.436 109.977L128.207 109.541L152.09 105.781V136.217C152.09 146.59 154.241 154.987 158.88 161.083C163.493 167.144 170.432 171.253 179.413 173.577L179.428 173.581L179.444 173.585C188.316 175.76 200.111 176.817 214.743 176.817C222.293 176.817 231.152 176.522 241.314 175.936C251.459 175.467 262.373 174.881 274.056 174.179L276.406 174.038V171.683C276.406 163.049 276.571 155.842 276.898 150.053L276.898 150.05C277.22 144.227 278.081 138.036 279.49 131.474L280.229 128.034L276.737 128.469C268.886 129.446 262.406 130.242 257.294 130.855C264.078 125.571 269.842 119.85 274.568 113.684L274.573 113.677L274.578 113.67C281.013 105.155 286.3 95.4634 290.453 84.6128L290.764 83.7989L290.502 82.9677L279.504 48.0757L283.12 48.6181L285.367 48.9552L285.917 46.7502C287.952 38.5795 288.913 30.23 288.8 21.7074L288.772 19.5871L286.675 19.2689L272.794 17.162L269.956 16.7312L269.954 16.8814ZM234.347 93.1971C232.1 94.9539 229.59 96.558 226.809 98.0062L226.8 98.0109L226.791 98.0157C221.507 100.823 214.708 103.338 206.342 105.531L202.332 106.582L205.133 109.638C209.127 113.996 212.566 118.394 215.458 122.833L215.466 122.846L215.475 122.858C217.775 126.297 220.081 130.067 222.393 134.167C219.539 134.336 216.99 134.419 214.743 134.419C207.616 134.419 203.04 133.7 200.607 132.552C199.42 131.991 198.691 131.356 198.254 130.719C197.829 130.1 197.578 129.334 197.578 128.316V98.8566L234.347 93.1971Z" fill="white" stroke="#2C1636" stroke-width="5"/>
<path d="M284.516 73.0361H282.016V75.5361V176.756V179.256H284.516H320.045H322.545V176.756V172.965H365.373V176.756V179.256H367.873H403.402H405.902V176.756V75.5361V73.0361H403.402H284.516ZM365.373 107.058V138.8H322.545V107.058H365.373Z" fill="white" stroke="#2C1636" stroke-width="5"/>
<path d="M537.855 110.681C537.95 106.761 537.997 100.858 537.997 92.987L537.997 92.977L537.856 57.699L537.846 55.2091H535.356H484.264C484.314 52.5944 484.34 49.205 484.34 45.0488V42.5488H481.84H444.985H442.485V45.0488V55.2091H412.085H409.585V57.7091V89.4308V91.9308H412.085H440.191C438.846 97.2837 436.735 101.449 433.949 104.544L433.94 104.554L433.931 104.564C428.643 110.567 418.25 114.748 401.928 116.534L398.24 116.937L399.999 120.204C405.938 131.234 410.429 142.435 413.483 153.807L414.105 156.126L416.448 155.597C437.885 150.758 453.986 143.374 464.395 133.22C468.213 138.376 472.637 145.545 477.667 154.781L478.461 156.238L480.111 156.073C493.49 154.735 504.316 152.572 512.505 149.527L512.517 149.523L512.529 149.518C520.813 146.339 527.159 141.644 531.364 135.342L531.369 135.335L531.374 135.327C535.571 128.933 537.661 120.651 537.855 110.681ZM537.855 110.681C537.855 110.679 537.855 110.677 537.856 110.675L535.356 110.626L537.855 110.687C537.855 110.685 537.855 110.683 537.855 110.681ZM488.586 115.737L488.579 115.739L488.572 115.741C485.743 116.453 481.457 116.843 475.611 116.85C478.603 109.995 480.78 101.671 482.185 91.9308H497.017C497.188 94.6416 497.272 97.0789 497.272 99.246C497.272 105.094 496.472 108.975 495.193 111.25C494.003 113.365 491.931 114.915 488.586 115.737Z" fill="white" stroke="#2C1636" stroke-width="5"/>
<path d="M541.249 71.8169H538.749V74.3169V103.222V105.722H541.249H661.391H663.891V103.222V74.3169V71.8169H661.391H541.249ZM660.738 108.382L660.01 107.165H658.593H535.498H532.998V109.665V149.433V152.075L535.636 151.929C556.535 150.772 584.39 150.16 619.22 150.097C612.861 155.477 603.913 159.889 592.202 163.23C577.629 167.387 558.983 169.828 536.201 170.499L531.816 170.629L534.163 174.336C538.118 180.582 541.733 187.633 545.002 195.498L545.007 195.511L545.012 195.524C548.4 203.428 551.111 210.823 553.151 217.71L553.779 219.831L555.961 219.465C579.485 215.52 598.999 210.449 614.455 204.222L614.465 204.218C630.059 197.852 642.95 189.516 653.071 179.17C663.283 168.835 671.683 155.661 678.309 139.714L678.792 138.551L678.146 137.471L660.738 108.382Z" fill="white" stroke="#2C1636" stroke-width="5"/>
</svg>
